<svg class="icon" viewBox="0 0 1365 1024" xmlns="http://www.w3.org/2000/svg" width="42.656" height="32"><defs><style/></defs><path d="M1241.835 384.925h1.98a51.792 51.792 0 0 0 39.623-50.378V231.811A169.811 169.811 0 0 0 1113.627 62H253.25A169.811 169.811 0 0 0 83.438 231.811v102.17a51.51 51.51 0 0 0 39.623 50.377h1.981A134.15 134.15 0 0 1 217.023 512a133.585 133.585 0 0 1-91.98 127.075h-3.68a50.66 50.66 0 0 0-37.925 48.397 7.925 7.925 0 0 0 0 2.547 11.604 11.604 0 0 0 0 3.113v98.208A169.811 169.811 0 0 0 253.25 961.15h859.811a169.811 169.811 0 0 0 169.811-169.81V690.302a52.075 52.075 0 0 0-37.358-50.094 133.868 133.868 0 0 1-3.962-254.717zm-372.736-64.529a209.434 209.434 0 0 1-12.736 23.774l-93.68 154.528h41.604c30.566 0 45.85 9.906 45.85 30s-15.284 30.566-45.85 30.566h-73.585v46.698h73.585c30.566 0 45.85 10.189 45.85 30.85s-15.284 29.716-45.85 29.716h-73.585v26.038q0 66.226-44.15 66.226c-29.717 0-44.434-22.075-44.434-66.226v-26.038h-73.585c-30.85 0-46.132-9.905-46.132-29.717s15.283-30.849 46.132-30.849h73.302v-46.698h-73.302c-30.85 0-46.132-10.189-46.132-30.566s15.283-30 46.132-30h41.32l-97.358-153.68c-7.642-12.169-12.736-20.66-15.283-26.037a41.887 41.887 0 0 1-3.68-17.264 36.226 36.226 0 0 1 10.472-28.302 35.66 35.66 0 0 1 26.321-10.189 35.943 35.943 0 0 1 26.887 10.19 175.189 175.189 0 0 1 24.057 32.546l105 164.717 94.245-153.962c3.396-5.943 7.075-12.453 11.038-18.962a196.132 196.132 0 0 1 11.32-16.981 50.377 50.377 0 0 1 13.868-11.604 40.189 40.189 0 0 1 19.812-4.528 36.51 36.51 0 0 1 26.32 9.905 32.264 32.264 0 0 1 10.472 24.34 51.226 51.226 0 0 1-4.245 21.51z"/></svg>