<svg class="icon" viewBox="0 0 1109 1024" xmlns="http://www.w3.org/2000/svg" width="34.656" height="32"><defs><style/></defs><path d="M595.797 667.477h161.195c18.773 0 34.133 15.275 34.133 34.134v51.2a34.133 34.133 0 0 1-34.133 34.133H510.464a34.133 34.133 0 0 1-34.133-34.133V506.283c0-18.859 15.36-34.134 34.133-34.134h51.2c18.859 0 34.133 15.275 34.133 34.134v161.194zM245.59 887.467H972.8V374.869H245.59v512.598zM102.4 0h904.533a102.4 102.4 0 0 1 102.4 102.4v819.2a102.4 102.4 0 0 1-102.4 102.4H102.4A102.4 102.4 0 0 1 0 921.6V102.4A102.4 102.4 0 0 1 102.4 0zm61.27 127.403a25.6 25.6 0 0 0-25.6 25.6v51.2a25.6 25.6 0 0 0 25.6 25.6h51.2a25.6 25.6 0 0 0 25.6-25.6v-51.2a25.6 25.6 0 0 0-25.6-25.6h-51.2zm186.88 0a25.6 25.6 0 0 0-25.6 25.6v51.2a25.6 25.6 0 0 0 25.6 25.6h51.2a25.6 25.6 0 0 0 25.6-25.6v-51.2a25.6 25.6 0 0 0-25.6-25.6h-51.2zm186.709 0a25.6 25.6 0 0 0-25.6 25.6v51.2a25.6 25.6 0 0 0 25.6 25.6h403.456a25.6 25.6 0 0 0 25.6-25.6v-51.2a25.6 25.6 0 0 0-25.6-25.6H537.259z"/></svg>