<svg class="icon" viewBox="0 0 1024 1024" xmlns="http://www.w3.org/2000/svg" width="32" height="32"><defs><style/></defs><path d="M839.68 92.16H184.32c-30.72 0-51.2 25.6-51.2 56.32v732.16c0 30.72 25.6 51.2 51.2 51.2h650.24c30.72 0 51.2-25.6 51.2-51.2V148.48c5.12-30.72-20.48-56.32-46.08-56.32zM307.2 512c-20.48 0-40.96-15.36-40.96-40.96s20.48-40.96 40.96-40.96 40.96 20.48 40.96 40.96S332.8 512 307.2 512zm0-189.44c-20.48 0-40.96-15.36-40.96-40.96s20.48-40.96 40.96-40.96 40.96 20.48 40.96 40.96-15.36 40.96-40.96 40.96zm107.52 358.4c0-10.24 5.12-20.48 15.36-20.48h291.84l-56.32-56.32c-5.12-5.12-5.12-20.48 0-25.6 5.12-5.12 10.24-5.12 15.36-5.12 5.12 0 10.24 0 15.36 5.12l92.16 92.16c5.12 5.12 5.12 10.24 5.12 15.36 0 5.12 0 10.24-5.12 15.36l-92.16 87.04c-5.12 5.12-10.24 5.12-15.36 5.12-5.12 0-10.24 0-15.36-5.12-5.12-5.12-5.12-20.48 0-25.6l61.44-61.44H430.08c-10.24 0-15.36-10.24-15.36-20.48zm424.96 143.36c0 30.72-25.6 56.32-56.32 56.32H522.24c-30.72 0-56.32-25.6-56.32-56.32V768h35.84v56.32c0 10.24 10.24 20.48 20.48 20.48h261.12c10.24 0 20.48-10.24 20.48-20.48V537.6c0-10.24-10.24-20.48-20.48-20.48H522.24c-10.24 0-20.48 10.24-20.48 20.48v56.32h-35.84V537.6c0-30.72 25.6-56.32 56.32-56.32h261.12c30.72 0 56.32 25.6 56.32 56.32v286.72z"/></svg>