<svg class="icon" viewBox="0 0 1024 1024" xmlns="http://www.w3.org/2000/svg" width="32" height="32"><defs><style/></defs><path d="M450.133 923.733h-288v-780.8h117.334V166.4H204.8c-12.8 0-21.333 8.533-21.333 21.333v693.334c0 12.8 8.533 21.333 21.333 21.333h194.133c12.8 0 21.334-8.533 21.334-21.333s-8.534-21.334-21.334-21.334h-172.8v-652.8h53.334c8.533 40.534 40.533 66.134 83.2 66.134h288c44.8 0 76.8-25.6 83.2-66.134H787.2V435.2c0 12.8 8.533 21.333 21.333 21.333S829.867 448 829.867 435.2V185.6c0-12.8-8.534-21.333-21.334-21.333H736v-21.334h117.333v322.134c0 23.466 19.2 42.666 42.667 42.666s42.667-19.2 42.667-42.666V128c0-40.533-29.867-72.533-72.534-72.533H736C736 32 716.8 12.8 693.333 12.8h-371.2c-23.466 0-42.666 19.2-42.666 42.667H147.2c-40.533 2.133-70.4 32-70.4 72.533v808.533c0 40.534 29.867 72.534 72.533 72.534h300.8c23.467 0 42.667-19.2 42.667-42.667s-19.2-42.667-42.667-42.667zM364.8 100.267h290.133v87.466H364.8v-87.466z"/><path d="M716.8 388.267c0-12.8-8.533-21.334-21.333-21.334h-352c-12.8 0-21.334 8.534-21.334 21.334s8.534 21.333 21.334 21.333h352c12.8 0 21.333-10.667 21.333-21.333zm-128 183.466c0-12.8-8.533-21.333-21.333-21.333h-224c-12.8 0-21.334 8.533-21.334 21.333s8.534 21.334 21.334 21.334h224c12.8 0 21.333-10.667 21.333-21.334zm-241.067 128c-12.8 0-21.333 8.534-21.333 21.334s8.533 21.333 21.333 21.333H422.4c12.8 0 21.333-8.533 21.333-21.333s-8.533-21.334-21.333-21.334h-74.667zm599.467 70.4v-4.266c-2.133-10.667-14.933-19.2-23.467-21.334L889.6 736s-2.133 0-2.133-2.133c-2.134-8.534-6.4-14.934-10.667-23.467v-2.133L896 678.4c2.133-4.267 8.533-14.933 6.4-25.6l-2.133-6.4-27.734-27.733H864c-10.667 0-17.067 2.133-21.333 4.266l-32 19.2h-2.134c-8.533-4.266-14.933-6.4-23.466-10.666 0 0-2.134 0-2.134-2.134l-6.4-32C774.4 586.667 768 576 755.2 571.733h-44.8L704 582.4c-2.133 2.133-4.267 6.4-4.267 12.8l-8.533 34.133s0 2.134-2.133 2.134c-8.534 2.133-17.067 6.4-25.6 10.666h-2.134l-29.866-19.2c-6.4-4.266-12.8-6.4-19.2-6.4h-8.534l-38.4 36.267 6.4 12.8c0 2.133 2.134 6.4 4.267 12.8l19.2 32v2.133c-4.267 8.534-6.4 14.934-8.533 23.467 0 0 0 2.133-2.134 2.133l-34.133 6.4c-10.667 2.134-21.333 8.534-25.6 21.334V812.8l12.8 4.267c2.133 2.133 6.4 4.266 12.8 4.266l34.133 8.534s2.134 0 2.134 2.133c2.133 6.4 4.266 12.8 8.533 21.333v2.134l-19.2 32c-2.133 4.266-8.533 14.933-6.4 25.6l2.133 6.4 27.734 27.733h6.4c10.666 2.133 19.2-2.133 21.333-4.267l32-19.2-10.667-17.066 12.8 17.066c8.534 4.267 17.067 8.534 25.6 10.667 0 0 2.134 0 2.134 2.133l8.533 34.134c2.133 4.266 4.267 17.066 14.933 23.466l4.267 2.134h36.267c10.666-2.134 19.2-14.934 21.333-23.467l8.533-36.267s0-2.133 2.134-2.133c8.533-2.133 17.066-6.4 23.466-10.667h2.134l29.866 19.2c6.4 4.267 12.8 6.4 19.2 6.4h8.534l38.4-34.133-6.4-12.8c0-2.133-2.134-6.4-4.267-12.8l-19.2-32v-2.133c4.267-6.4 6.4-14.934 8.533-23.467 0 0 0-2.133 2.134-2.133l34.133-8.534c4.267-2.133 17.067-4.266 23.467-14.933l2.133-4.267v-32zM876.8 787.2c-14.933 4.267-27.733 14.933-32 29.867-2.133 6.4-4.267 10.666-6.4 17.066C832 849.067 832 864 840.533 876.8L851.2 896l-17.067-10.667c-12.8-8.533-29.866-8.533-44.8-2.133-6.4 2.133-10.666 4.267-17.066 6.4-14.934 4.267-25.6 17.067-29.867 32l-4.267 21.333-4.266-21.333c-4.267-14.933-14.934-27.733-29.867-32-6.4-2.133-12.8-4.267-19.2-8.533-6.4-4.267-12.8-4.267-21.333-4.267S646.4 878.933 640 883.2L620.8 896l12.8-21.333c8.533-12.8 8.533-29.867 2.133-42.667-2.133-6.4-4.266-10.667-6.4-14.933-4.266-14.934-17.066-25.6-32-29.867L576 780.8l19.2-4.267c14.933-4.266 27.733-14.933 34.133-29.866 2.134-4.267 4.267-10.667 6.4-17.067 6.4-12.8 6.4-29.867-2.133-42.667L620.8 665.6l17.067 10.667c12.8 8.533 32 8.533 44.8 2.133 6.4-4.267 12.8-6.4 19.2-8.533 14.933-4.267 25.6-17.067 29.866-32l6.4-21.334 4.267 19.2c4.267 14.934 14.933 27.734 29.867 32 6.4 2.134 12.8 4.267 17.066 6.4 14.934 6.4 32 6.4 44.8-2.133l17.067-10.667-10.667 19.2C832 693.333 832 710.4 838.4 723.2c2.133 6.4 6.4 10.667 6.4 17.067 4.267 14.933 17.067 27.733 34.133 29.866l19.2 4.267-21.333 12.8z"/><path d="M738.133 704c-42.666 0-78.933 34.133-78.933 76.8s34.133 76.8 78.933 76.8c42.667 0 78.934-34.133 78.934-76.8-2.134-42.667-36.267-76.8-78.934-76.8zm0 113.067c-19.2 0-36.266-14.934-36.266-34.134 0-19.2 14.933-34.133 36.266-34.133 19.2 0 36.267 14.933 36.267 34.133s-17.067 34.134-36.267 34.134z"/></svg>