<svg class="icon" viewBox="0 0 1024 1024" xmlns="http://www.w3.org/2000/svg" width="32" height="32"><defs><style/></defs><path d="M791.467 659.2H232.533v96h556.8v-96zm-262.4 70.4H281.6c-12.8 0-23.467-10.667-23.467-23.467s10.667-23.466 23.467-23.466h249.6c12.8 0 23.467 10.666 23.467 23.466s-12.8 23.467-25.6 23.467zm213.333 0H635.733c-12.8 0-23.466-10.667-23.466-23.467 0-14.933 12.8-23.466 23.466-23.466H742.4c10.667 0 23.467 8.533 23.467 23.466 0 12.8-10.667 23.467-23.467 23.467zm49.067-460.8H232.533v345.6h556.8V268.8zM742.4 482.133H672c-8.533 0-14.933-4.266-21.333-12.8l-14.934-29.866L567.467 576c-4.267 8.533-10.667 12.8-21.334 12.8-8.533 0-14.933-4.267-21.333-12.8L420.267 369.067l-51.2 100.266c-4.267 8.534-10.667 12.8-21.334 12.8h-70.4c-12.8 0-23.466-8.533-23.466-23.466S262.4 435.2 277.333 435.2h57.6l64-128c2.134-6.4 10.667-12.8 21.334-12.8 8.533 0 17.066 4.267 21.333 12.8L544 514.133 612.267 377.6c2.133-6.4 10.666-12.8 21.333-12.8s17.067 4.267 21.333 12.8l27.734 57.6h57.6c12.8 0 23.466 8.533 23.466 23.467s-8.533 23.466-21.333 23.466z"/><path d="M917.333 0H106.667C46.933 0 0 46.933 0 106.667v810.666C0 977.067 46.933 1024 106.667 1024h810.666C977.067 1024 1024 977.067 1024 917.333V106.667C1024 46.933 977.067 0 917.333 0zM838.4 802.133H187.733V221.867H838.4v580.266z"/></svg>