<svg class="icon" viewBox="0 0 1024 1024" xmlns="http://www.w3.org/2000/svg" width="32" height="32"><defs><style/></defs><path d="M994.512 859.992L792.903 658.38l26.896-26.92-26.878-26.88-80.618 80.638-134.45-134.43 161.54-161.56c21.518 7.66 44.005 11.538 67.081 11.538 53.244 0 103.314-20.739 140.975-58.357 58.11-58.15 74.59-144.547 41.991-220.127l-11.084-25.738-86.643 86.643-69.765.952.933-66.532 88.315-88.297-25.662-11.123C860.345 7.296 833.6 1.765 806.035 1.765c-53.262 0-103.312 20.74-140.912 58.377-55.127 55.09-72.843 135.573-46.764 208.227L456.877 429.852 228.35 201.362l26.898-26.88L107.43 26.668l-80.713 80.599 147.873 147.853 26.86-26.879 228.528 228.49-161.483 161.485c-21.575-7.718-44.157-11.615-67.31-11.615-53.245 0-103.315 20.755-140.935 58.397-58.226 58.187-74.687 144.716-41.916 220.389l11.12 25.662 88.317-88.314 66.514-.895-.95 69.765-86.644 86.643 25.737 11.063c25.112 10.837 51.762 16.329 79.193 16.329 53.264 0 103.295-20.717 140.915-58.358 55.05-55.05 72.766-135.439 46.858-207.976l161.578-161.58 134.453 134.396-80.675 80.675 26.878 26.878 26.88-26.878 201.592 201.592c17.943 17.965 41.838 27.848 67.217 27.848 25.376 0 49.252-9.883 67.216-27.848 37.05-37.052 37.029-97.347-.022-134.396zM80.515 107.266l26.898-26.841 94.057 94.057-26.878 26.88-94.077-94.096zm269.17 634.926c26.365 61.19 13.002 131.162-34.046 178.21-30.452 30.454-70.924 47.218-114.036 47.218-12.375 0-24.56-1.367-36.42-4.125l55.924-55.944 1.693-124.263-121.012 1.638-57.732 57.73c-12.698-53.833 2.89-110.634 43.074-150.782 30.472-30.492 70.962-47.259 114.056-47.259 22.336 0 43.967 4.49 64.383 13.327l11.862 5.135 385.772-385.755-5.133-11.862c-26.536-61.285-13.191-131.297 33.931-178.42 30.454-30.472 70.944-47.239 114.035-47.239a162.51 162.51 0 0 1 36.747 4.183l-57.693 57.693-1.673 121.031 124.264-1.692 55.982-55.963c12.544 53.74-3.061 110.444-43.115 150.514-30.491 30.454-70.98 47.22-114.092 47.22-22.26 0-43.853-4.449-64.213-13.211l-11.841-5.114L344.57 730.35l5.115 11.843zm617.97 225.314c-10.78 10.761-25.114 16.71-40.34 16.71-15.243 0-29.558-5.949-40.336-16.71L685.367 765.915l80.638-80.638L967.616 886.87c22.261 22.242 22.261 58.397.038 80.637z"/></svg>